<?xml version="1.0" encoding="UTF-8"?>
<svg xmlns="http://www.w3.org/2000/svg" xmlns:xlink="http://www.w3.org/1999/xlink" viewBox="0 0 30 30" width="20px" height="20px">
<g id="surface270409938">
<path style=" stroke:none;fill-rule:nonzero;fill:rgb(89.803922%,32.156864%,25.490198%);fill-opacity:1;" d="M 12.5 2.5 L 11.25 3.75 L 5 3.75 L 5 6.25 L 6.25 6.25 L 6.25 25 C 6.25 25.652344 6.488281 26.316406 6.960938 26.789062 C 7.433594 27.261719 8.097656 27.5 8.75 27.5 L 21.25 27.5 C 21.902344 27.5 22.566406 27.261719 23.039062 26.789062 C 23.511719 26.316406 23.75 25.652344 23.75 25 L 23.75 6.25 L 25 6.25 L 25 3.75 L 18.75 3.75 L 17.5 2.5 Z M 8.75 6.25 L 21.25 6.25 L 21.25 25 L 8.75 25 Z M 11.25 8.75 L 11.25 22.5 L 13.75 22.5 L 13.75 8.75 Z M 16.25 8.75 L 16.25 22.5 L 18.75 22.5 L 18.75 8.75 Z M 16.25 8.75 "/>
</g>
</svg>
